<?xml version="1.0" encoding="UTF-8" standalone="no"?>
<!-- Created with Inkscape (http://www.inkscape.org/) -->

<svg
   width="210mm"
   height="297mm"
   viewBox="0 0 210 297"
   version="1.1"
   id="svg5"
   inkscape:version="1.1.1 (3bf5ae0d25, 2021-09-20)"
   sodipodi:docname="Nudelwerkwithoutbg.svg"
   xmlns:inkscape="http://www.inkscape.org/namespaces/inkscape"
   xmlns:sodipodi="http://sodipodi.sourceforge.net/DTD/sodipodi-0.dtd"
   xmlns="http://www.w3.org/2000/svg"
   xmlns:svg="http://www.w3.org/2000/svg">
  <sodipodi:namedview
     id="namedview7"
     pagecolor="#ffffff"
     bordercolor="#666666"
     borderopacity="1.0"
     inkscape:pageshadow="2"
     inkscape:pageopacity="0.0"
     inkscape:pagecheckerboard="0"
     inkscape:document-units="mm"
     showgrid="false"
     showborder="false"
     inkscape:zoom="0.71446409"
     inkscape:cx="557.76071"
     inkscape:cy="468.18308"
     inkscape:window-width="1920"
     inkscape:window-height="991"
     inkscape:window-x="-9"
     inkscape:window-y="-9"
     inkscape:window-maximized="1"
     inkscape:current-layer="layer1" />
  <defs
     id="defs2">
    <rect
       x="304.42398"
       y="414.99637"
       width="573.8567"
       height="82.579378"
       id="rect34993" />
    <rect
       x="303.37424"
       y="423.04436"
       width="567.90818"
       height="67.183223"
       id="rect9407" />
  </defs>
  <g
     inkscape:label="Ebene 1"
     inkscape:groupmode="layer"
     id="layer1">
    <path
       style="fill:none;stroke:#000000;stroke-width:0.264583px;stroke-linecap:butt;stroke-linejoin:miter;stroke-opacity:1"
       d="m 238.81281,106.05159 c 2.05543,1.05931 2.30181,3.28157 2.68485,5.41599 1.40438,3.46374 4.51403,4.45482 8.37858,4.35131 4.24794,-1.081 8.49186,-2.12778 12.49845,-1.15726 10.33305,4.44844 7.31978,11.6474 0,14.1649 -5.38469,1.3492 -9.41027,-0.15571 -13.60942,-1.29614 -3.58031,-0.16359 -6.48576,1.23564 -7.73052,6.48068 -0.94124,3.69423 -1.88248,3.77042 -2.82372,4.11985 H 72.120635 c -2.275818,0.10829 -3.433137,-1.29669 -3.61066,-4.02727 -0.206022,-4.121 -2.98945,-5.75347 -6.758417,-6.43439 -4.790127,0.75832 -9.627866,2.18322 -14.303771,1.34243 -4.966066,-2.28204 -10.692312,-9.91977 0,-13.93345 5.285627,-1.45803 10.04833,0.39579 14.998128,1.06468 2.660513,-0.36193 5.937548,-2.0469 6.065343,-5.36905 0.05492,-1.4278 0.430636,-2.91764 1.711465,-4.25938 z"
       id="path75"
       sodipodi:nodetypes="ccccccccccccccscc" />
    <path
       style="fill:none;stroke:#000000;stroke-width:0.264583px;stroke-linecap:butt;stroke-linejoin:miter;stroke-opacity:1"
       d="m 70.222723,106.51449 c 4.513593,14.2583 1.431388,22.08939 -0.138872,31.19982"
       id="path1556"
       sodipodi:nodetypes="cc" />
    <path
       style="fill:none;stroke:#000000;stroke-width:0.264583px;stroke-linecap:butt;stroke-linejoin:miter;stroke-opacity:1"
       d="m 238.81281,106.05159 c -3.79261,9.6155 -3.79086,20.36932 -0.60178,32.07933"
       id="path1669"
       sodipodi:nodetypes="cc" />
    <path
       style="fill:none;stroke:#000000;stroke-width:0.264583px;stroke-linecap:butt;stroke-linejoin:miter;stroke-opacity:1"
       d="m 111.83791,138.13092 c 20.87527,34.8058 64.1079,28.67201 80.54551,0.0463 z"
       id="path3379"
       sodipodi:nodetypes="ccc" />
    <path
       style="fill:none;stroke:#000000;stroke-width:0.264583px;stroke-linecap:butt;stroke-linejoin:miter;stroke-opacity:1"
       d="m 105.75002,106.42512 c 8.16431,-56.722055 83.0766,-56.990363 92.03781,-0.27516 z"
       id="path3910"
       sodipodi:nodetypes="ccc" />
    <path
       style="fill:none;stroke:#000000;stroke-width:0.264583px;stroke-linecap:butt;stroke-linejoin:miter;stroke-opacity:1"
       d="m 122.87722,102.84502 c 5.0309,-24.716451 45.87188,-36.518322 58.00171,-0.19639"
       id="path4213"
       sodipodi:nodetypes="cc" />
    <path
       style="fill:none;stroke:#000000;stroke-width:0.264583px;stroke-linecap:butt;stroke-linejoin:miter;stroke-opacity:1"
       d="m 137.80689,140.07512 c 9.2493,4.75596 18.10835,4.76387 26.61705,0.5092"
       id="path4364"
       sodipodi:nodetypes="cc" />
    <text
       xml:space="preserve"
       transform="matrix(0.33364123,0,0,0.34226763,-22.341557,-35.521242)"
       id="text34991"
       style="font-style:normal;font-variant:normal;font-weight:normal;font-stretch:normal;font-size:73.3333px;line-height:1.25;font-family:Century;-inkscape-font-specification:'Century, Normal';font-variant-ligatures:normal;font-variant-caps:normal;font-variant-numeric:normal;font-variant-east-asian:normal;white-space:pre;shape-inside:url(#rect34993);fill:#000000;fill-opacity:1;stroke:none"><tspan
         x="304.42383"
         y="482.21669"
         id="tspan231">Nudel - Werk</tspan></text>
    <path
       style="fill:none;stroke:#000000;stroke-width:0.264583px;stroke-linecap:butt;stroke-linejoin:miter;stroke-opacity:1"
       d="m 204.60411,106.19046 8.72576,-0.0926 c 3.15417,-18.954668 1.60603,-33.230167 -3.26347,-44.161161 -1.1203,-2.153715 -5.65938,-7.36254 -5.74003,0.09258 z"
       id="path46781"
       sodipodi:nodetypes="ccccc" />
    <path
       style="fill:none;stroke:#000000;stroke-width:0.264583px;stroke-linecap:butt;stroke-linejoin:miter;stroke-opacity:1"
       d="m 210.4035,67.821415 c 2.0205,9.615508 2.94808,20.506096 1.83301,33.779775"
       id="path47046"
       sodipodi:nodetypes="cc" />
    <path
       style="fill:none;stroke:#000000;stroke-width:0.264583px;stroke-linecap:butt;stroke-linejoin:miter;stroke-opacity:1"
       d="m 205.05176,138.11412 h 8.28128 c 0.40442,5.64847 2.62991,13.25022 0.3903,19.13479 -2.23857,5.68368 -6.65845,4.33162 -8.65632,0 -1.63005,-5.43749 -0.63093,-12.39714 -0.0153,-19.13479 z"
       id="path47273"
       sodipodi:nodetypes="cccccc" />
    <path
       style="fill:none;stroke:#000000;stroke-width:0.264583px;stroke-linecap:butt;stroke-linejoin:miter;stroke-opacity:1"
       d="m 90.937732,138.15407 h 9.976078 c 0.18068,5.50347 1.36015,11.23394 -0.19639,16.34259 -2.72507,10.62763 -8.425909,6.82746 -9.721506,0 -1.580354,-5.15846 -0.76758,-10.7601 -0.05818,-16.34259 z"
       id="path47690"
       sodipodi:nodetypes="ccccc" />
    <path
       style="fill:none;stroke:#000000;stroke-width:0.264583px;stroke-linecap:butt;stroke-linejoin:miter;stroke-opacity:1"
       d="m 93.696331,106.42921 h 4.091543 l -0.06546,-7.102916 c 2.326816,-1.016642 3.416156,-3.15855 4.157006,-5.548133 l 0.0491,-9.983364 c -0.21979,-7.367322 -0.80542,-12.027412 -1.45659,-16.202509 -0.25607,-1.420544 -0.715193,-2.420124 -1.014707,0 L 99.146266,84.580374 H 97.85334 L 97.542381,67.379529 c -0.363972,-2.320819 -1.109484,-1.759782 -1.292927,0.03273 l -0.0982,16.889888 -0.965605,-0.03273 -0.278225,-17.004454 C 94.464845,64.934622 93.814966,66.012614 93.5163,67.183133 l -0.01638,17.086284 -1.0638,-0.03274 -0.458253,-16.758959 c -0.286172,-1.459087 -0.700493,-1.694941 -1.32566,0.08183 -0.715393,5.179441 -1.298492,10.510075 -1.407491,16.382537 l -0.06546,9.803336 c 0.629976,2.70731 1.333217,4.797009 4.48433,5.973654 z"
       id="path47955"
       sodipodi:nodetypes="ccccccccccccccccccccccc" />
  </g>
</svg>
